<?xml version="1.0" standalone="no"?>
<!DOCTYPE svg PUBLIC "-//W3C//DTD SVG 20010904//EN"
 "http://www.w3.org/TR/2001/REC-SVG-20010904/DTD/svg10.dtd">
<svg version="1.0" xmlns="http://www.w3.org/2000/svg"
 width="1280.000000pt" height="307.000000pt" viewBox="0 0 1280.000000 307.000000"
 preserveAspectRatio="xMidYMid meet">
<metadata>
Created by potrace 1.16, written by Peter Selinger 2001-2019
</metadata>
<g transform="translate(0.000000,307.000000) scale(0.100000,-0.100000)"
fill="#000000" stroke="none">
<path d="M3567 2424 c-4 -4 -7 -409 -7 -901 l0 -893 185 0 185 0 -2 898 -3
897 -176 3 c-96 1 -178 -1 -182 -4z"/>
<path d="M0 2408 c0 -7 86 -364 190 -793 208 -853 217 -880 298 -942 24 -18
62 -38 85 -44 48 -13 253 -8 266 7 12 13 257 1017 290 1186 l27 141 12 -89
c41 -281 211 -1046 249 -1116 59 -107 138 -143 304 -136 60 2 111 6 113 9 3 2
109 398 236 879 127 481 233 883 236 893 5 16 -9 17 -190 17 -177 0 -195 -2
-200 -17 -12 -41 -187 -894 -221 -1073 -49 -267 -50 -270 -59 -193 -13 115
-84 467 -237 1181 l-22 102 -205 -2 -205 -3 -109 -465 c-59 -256 -128 -560
-151 -677 l-44 -212 -32 187 c-18 103 -75 405 -127 671 -52 266 -94 488 -94
492 0 5 -92 9 -205 9 -157 0 -205 -3 -205 -12z"/>
<path d="M8533 1678 c3 -806 2 -779 60 -894 68 -134 229 -198 439 -174 127 15
181 29 174 47 -3 8 -6 73 -6 144 l0 128 -92 -5 c-110 -7 -149 9 -182 72 -20
36 -21 59 -24 347 l-3 307 155 0 156 0 0 175 0 175 -155 0 -155 0 0 210 0 210
-185 0 -186 0 4 -742z"/>
<path d="M2640 2003 c-71 -8 -207 -46 -277 -78 -40 -19 -73 -35 -73 -37 0 -8
70 -242 74 -245 2 -3 26 7 53 20 123 63 306 93 412 67 84 -20 140 -79 155
-162 8 -45 9 -45 -139 -52 -334 -15 -567 -149 -631 -364 -19 -62 -19 -204 0
-267 51 -169 215 -279 415 -278 145 1 249 37 339 118 l49 44 31 -48 c55 -85
156 -121 278 -100 l66 11 -6 37 c-4 20 -10 236 -14 481 l-8 445 -27 79 c-82
236 -249 338 -547 334 -63 -1 -131 -3 -150 -5z m360 -814 c0 -116 -14 -168
-57 -219 -44 -51 -100 -80 -169 -87 -134 -14 -220 80 -193 209 25 113 160 181
372 187 l47 1 0 -91z"/>
<path d="M4745 1997 c-76 -20 -151 -65 -206 -125 l-49 -54 0 81 0 81 -180 0
-180 0 0 -675 0 -675 184 0 185 0 3 433 3 432 28 57 c58 119 174 175 275 133
70 -30 110 -85 131 -183 7 -34 11 -198 11 -462 l0 -410 184 0 185 0 3 443 3
442 24 48 c83 168 299 182 375 25 40 -83 46 -156 46 -570 l0 -388 185 0 185 0
0 448 c-1 474 -6 538 -50 654 -11 32 -41 84 -64 116 -84 114 -210 168 -370
160 -54 -3 -114 -14 -148 -26 -75 -26 -170 -94 -218 -154 l-38 -48 -26 44
c-36 62 -117 131 -184 157 -69 27 -221 35 -297 16z"/>
<path d="M6675 1999 c-103 -15 -293 -78 -315 -104 -6 -8 1 -50 24 -129 19 -64
36 -119 39 -122 3 -3 27 6 54 19 120 61 316 94 409 68 86 -23 143 -81 154
-156 8 -54 14 -51 -135 -59 -243 -11 -456 -95 -554 -217 -75 -92 -110 -227
-91 -346 35 -216 193 -345 425 -345 148 0 252 35 343 118 l50 44 25 -42 c54
-92 154 -130 283 -107 l66 11 -7 32 c-3 17 -10 231 -14 476 -9 486 -11 502
-73 623 -58 116 -177 201 -323 232 -76 16 -262 18 -360 4z m383 -831 c-3 -91
-8 -121 -26 -154 -40 -77 -114 -124 -207 -131 -74 -5 -139 24 -169 76 -30 52
-27 139 7 190 52 78 179 125 351 130 l48 1 -4 -112z"/>
<path d="M8214 2001 c-102 -25 -201 -108 -253 -212 l-31 -62 0 126 0 127 -170
0 -170 0 0 -675 0 -675 194 0 195 0 3 403 c3 399 3 402 27 455 14 30 43 69 68
92 62 54 124 73 229 69 l84 -4 -2 180 -3 180 -70 2 c-38 1 -84 -2 -101 -6z"/>
</g>
</svg>
