<?xml version="1.0" standalone="no"?>
<!DOCTYPE svg PUBLIC "-//W3C//DTD SVG 20010904//EN"
 "http://www.w3.org/TR/2001/REC-SVG-20010904/DTD/svg10.dtd">
<svg version="1.0" xmlns="http://www.w3.org/2000/svg"
 width="2560.000000pt" height="360.000000pt" viewBox="0 0 2560.000000 360.000000"
 preserveAspectRatio="xMidYMid meet">
<metadata>
Created by potrace 1.16, written by Peter Selinger 2001-2019
</metadata>
<g transform="translate(0.000000,360.000000) scale(0.100000,-0.100000)"
fill="#000000" stroke="none">
<path d="M0 3380 l0 -220 8985 0 8985 0 0 220 0 220 -8985 0 -8985 0 0 -220z"/>
<path d="M780 2654 c-291 -34 -437 -91 -566 -219 -81 -80 -125 -161 -149 -274
-26 -124 -53 -111 239 -111 l253 0 6 45 c19 139 120 214 297 223 219 10 329
-64 330 -222 0 -71 -22 -112 -77 -143 -63 -35 -136 -51 -378 -83 -274 -35
-362 -56 -475 -112 -135 -66 -219 -167 -249 -299 -15 -65 -13 -245 4 -308 47
-178 188 -307 391 -358 52 -13 108 -17 224 -17 133 1 169 5 252 27 107 28 214
80 286 138 l47 37 15 -77 15 -76 259 -3 c244 -2 258 -1 251 15 -5 10 -17 50
-28 88 -20 66 -21 107 -27 700 -7 697 -5 676 -74 780 -78 118 -219 194 -426
229 -94 16 -352 28 -420 20z m395 -1293 c-47 -164 -178 -251 -379 -251 -193 0
-296 76 -296 220 0 89 46 163 129 205 65 32 104 42 282 70 151 23 243 47 264
67 18 17 18 -246 0 -311z"/>
<path d="M2872 2649 c-154 -23 -309 -113 -404 -232 l-38 -49 0 121 0 121 -235
0 -235 0 0 -895 0 -895 250 0 250 0 0 544 c0 319 4 565 10 596 42 224 231 346
438 285 110 -33 159 -113 173 -280 4 -55 8 -335 9 -622 l0 -523 249 0 250 0 3
578 c3 568 4 578 26 644 46 138 134 208 272 216 149 9 247 -44 292 -156 23
-57 23 -57 26 -669 l3 -613 255 0 255 0 -3 678 -4 677 -25 82 c-79 252 -259
377 -574 398 -218 15 -438 -77 -565 -238 l-39 -48 -21 40 c-50 99 -179 191
-314 226 -77 19 -224 26 -304 14z"/>
<path d="M5680 2650 c-219 -28 -396 -115 -542 -268 -119 -125 -195 -270 -234
-447 -26 -118 -24 -350 4 -472 40 -174 112 -313 225 -431 151 -157 361 -245
612 -259 278 -14 507 57 669 208 105 98 179 213 232 362 l13 37 -222 0 -222 0
-20 -36 c-56 -104 -197 -183 -345 -191 -191 -12 -335 58 -405 198 -27 52 -55
160 -55 212 l0 27 651 0 652 0 -6 138 c-13 285 -96 506 -255 674 -112 118
-236 190 -395 228 -95 23 -263 32 -357 20z m258 -393 c104 -36 176 -119 218
-251 13 -42 24 -81 24 -86 0 -6 -149 -10 -395 -10 -449 0 -408 -10 -379 91 40
135 139 230 278 266 63 16 195 11 254 -10z"/>
<path d="M7776 2645 c-182 -38 -352 -163 -435 -320 l-21 -40 0 163 0 162 -240
0 -240 0 0 -895 0 -895 249 0 249 0 4 468 c5 434 7 472 26 544 41 151 115 253
224 307 86 43 154 54 296 48 l122 -5 0 228 c0 208 -2 228 -17 235 -37 14 -150
14 -217 0z"/>
<path d="M8160 1740 l0 -920 250 0 250 0 0 920 0 920 -250 0 -250 0 0 -920z"/>
<path d="M9561 2649 c-480 -56 -781 -423 -781 -952 0 -76 6 -168 14 -210 67
-349 293 -594 633 -684 84 -23 119 -26 253 -27 172 -1 250 10 378 56 158 57
304 178 390 323 46 78 97 222 108 303 l7 52 -246 0 -245 0 -6 -45 c-10 -65
-70 -177 -117 -220 -120 -108 -323 -126 -459 -40 -82 52 -154 168 -187 300
-26 107 -24 316 5 419 63 221 182 338 358 353 183 15 326 -75 375 -239 l21
-68 244 0 244 0 0 33 c0 58 -38 185 -77 260 -147 280 -508 433 -912 386z"/>
<path d="M11410 2654 c-202 -24 -308 -52 -425 -112 -95 -49 -202 -155 -243
-242 -27 -57 -62 -190 -62 -235 0 -13 32 -15 254 -15 l253 0 6 45 c13 90 64
156 152 197 43 20 66 23 170 23 178 0 249 -31 289 -127 23 -53 21 -143 -4
-182 -42 -70 -124 -95 -435 -136 -272 -35 -362 -56 -473 -110 -185 -92 -262
-223 -262 -450 0 -175 41 -282 147 -380 122 -114 249 -155 483 -154 134 1 168
5 254 27 104 28 220 85 291 142 l42 35 7 -49 c4 -27 11 -63 17 -80 l11 -31
255 0 c239 0 255 1 248 18 -5 9 -17 49 -28 87 -19 66 -21 108 -27 700 -7 697
-5 676 -74 780 -78 118 -219 194 -426 229 -94 16 -352 28 -420 20z m395 -1293
c-47 -164 -178 -251 -379 -251 -192 0 -296 77 -296 220 0 89 46 163 129 205
65 32 104 42 282 70 151 23 243 47 264 67 18 17 18 -246 0 -311z"/>
<path d="M13485 2646 c-169 -33 -312 -121 -406 -250 l-29 -39 0 126 0 127
-240 0 -240 0 0 -895 0 -895 255 0 255 0 0 529 c0 560 4 625 49 725 28 64 93
130 154 156 72 31 202 39 281 16 112 -33 174 -127 196 -298 6 -47 10 -303 10
-605 l0 -523 250 0 250 0 0 623 c0 673 -4 737 -55 873 -64 169 -196 280 -380
319 -105 22 -267 27 -350 11z"/>
<path d="M15220 2653 c-444 -43 -685 -225 -725 -546 l-7 -57 253 2 253 3 8 42
c23 139 122 212 298 221 226 11 339 -70 328 -236 -4 -60 -7 -67 -45 -103 -57
-53 -133 -73 -408 -109 -263 -34 -359 -56 -465 -106 -189 -90 -273 -226 -273
-449 -1 -169 41 -280 141 -380 65 -64 141 -106 247 -137 114 -32 349 -32 478
0 109 27 213 75 295 136 l62 46 0 -28 c0 -15 6 -49 13 -77 l13 -50 257 -3
c141 -1 257 0 257 3 0 4 -4 15 -10 25 -5 10 -17 45 -27 77 -14 51 -17 139 -23
693 -6 616 -7 637 -27 692 -58 156 -179 250 -387 303 -137 35 -366 52 -506 38z
m408 -1148 c-3 -121 -6 -135 -35 -195 -71 -150 -185 -208 -388 -197 -103 5
-148 18 -199 58 -60 47 -84 166 -50 247 43 104 142 151 394 187 133 19 203 35
245 58 29 15 30 15 34 -6 2 -12 1 -80 -1 -152z"/>
<path d="M16950 2649 c-273 -28 -474 -139 -557 -307 -43 -85 -56 -156 -51
-276 3 -82 9 -112 29 -156 68 -146 199 -225 488 -295 400 -97 464 -117 536
-166 36 -25 75 -85 75 -115 0 -92 -71 -172 -181 -205 -59 -18 -87 -21 -168
-17 -197 11 -319 99 -340 247 l-6 46 -242 3 -243 2 6 -47 c19 -161 69 -270
168 -369 174 -174 492 -253 852 -213 137 15 236 42 341 94 207 102 313 275
313 511 0 156 -47 262 -153 345 -103 82 -222 126 -512 189 -246 54 -308 72
-375 112 -66 40 -93 84 -86 142 11 88 85 136 226 144 144 8 252 -21 312 -85
31 -33 58 -91 58 -128 l0 -25 240 0 240 0 0 31 c0 82 -56 224 -122 306 -145
183 -467 271 -848 232z"/>
<path d="M19720 2654 c-199 -23 -355 -83 -486 -188 -218 -173 -328 -435 -327
-776 0 -295 83 -503 270 -680 116 -110 217 -165 391 -212 115 -32 380 -31 507
0 241 60 427 204 526 408 34 71 89 249 89 290 0 12 -44 14 -243 14 l-243 0
-18 -70 c-48 -189 -200 -299 -397 -288 -100 6 -170 39 -238 113 -101 111 -136
225 -136 445 0 172 16 247 78 363 40 77 130 160 199 183 72 25 204 25 277 0
76 -26 161 -111 190 -189 11 -32 21 -67 21 -77 0 -19 8 -20 250 -20 209 0 250
2 250 14 0 8 -6 48 -14 88 -56 292 -274 493 -608 562 -77 16 -274 28 -338 20z"/>
<path d="M21561 2649 c-401 -47 -680 -303 -767 -705 -21 -98 -24 -329 -5 -434
85 -478 463 -763 976 -737 338 17 598 160 747 409 192 322 177 807 -34 1117
-72 105 -206 214 -333 272 -160 72 -380 101 -584 78z m241 -380 c159 -34 263
-143 314 -329 26 -92 26 -358 2 -448 -43 -155 -131 -268 -243 -313 -50 -20
-78 -24 -170 -24 -99 0 -116 3 -167 27 -116 54 -194 156 -235 308 -26 93 -25
359 1 450 37 133 105 235 190 285 85 50 202 66 308 44z"/>
<path d="M23764 2651 c-142 -23 -253 -80 -361 -187 l-83 -81 0 114 0 113 -240
0 -240 0 0 -895 0 -895 255 0 255 0 0 563 c0 596 1 612 49 705 29 57 86 113
146 142 42 21 65 25 145 25 87 0 100 -3 148 -29 58 -33 83 -62 110 -128 15
-39 17 -105 20 -660 l3 -618 254 0 255 0 0 553 c0 358 4 574 11 613 33 178
143 274 314 274 169 0 257 -78 284 -250 7 -40 11 -285 11 -627 l0 -563 250 0
250 0 0 663 c0 737 -1 743 -66 876 -68 137 -185 226 -359 272 -62 16 -111 21
-215 22 -121 1 -144 -2 -217 -27 -102 -33 -214 -106 -288 -188 -30 -34 -56
-59 -58 -57 -2 2 -18 25 -35 50 -67 99 -172 171 -299 204 -71 19 -229 27 -299
16z"/>
<path d="M18329 1345 c-25 -8 -66 -33 -92 -55 -115 -101 -126 -267 -24 -377
64 -70 106 -88 207 -88 76 0 91 3 138 29 160 89 189 297 60 426 -67 68 -193
96 -289 65z"/>
<path d="M0 220 l0 -220 8985 0 8985 0 0 220 0 220 -8985 0 -8985 0 0 -220z"/>
</g>
</svg>
