<?xml version="1.0" standalone="no"?>
<!DOCTYPE svg PUBLIC "-//W3C//DTD SVG 20010904//EN"
 "http://www.w3.org/TR/2001/REC-SVG-20010904/DTD/svg10.dtd">
<svg version="1.0" xmlns="http://www.w3.org/2000/svg"
 width="1200.000000pt" height="800.000000pt" viewBox="0 0 1200.000000 800.000000"
 preserveAspectRatio="xMidYMid meet">
<metadata>
Created by potrace 1.16, written by Peter Selinger 2001-2019
</metadata>
<g transform="translate(0.000000,800.000000) scale(0.100000,-0.100000)"
fill="#000000" stroke="none">
<path d="M3030 4415 l0 -875 155 0 155 0 0 360 0 360 375 0 375 0 0 140 0 140
-375 0 -375 0 0 235 0 235 413 2 412 3 3 138 3 137 -571 0 -570 0 0 -875z"/>
<path d="M5760 4945 l0 -165 -95 0 -95 0 0 -120 0 -120 95 0 95 0 0 -315 c0
-389 11 -451 97 -546 90 -100 175 -130 386 -137 l157 -4 0 120 0 120 -112 4
c-132 4 -180 22 -213 78 -19 33 -20 55 -23 358 l-3 322 176 0 176 0 -3 118 -3
117 -172 3 -173 2 0 165 0 165 -145 0 -145 0 0 -165z"/>
<path d="M4755 4794 c-249 -40 -403 -179 -422 -377 l-6 -67 136 0 137 0 6 28
c15 69 28 94 65 126 50 42 111 60 211 59 63 0 87 -5 132 -27 85 -42 116 -99
116 -217 l0 -67 -252 -4 c-287 -5 -342 -16 -436 -85 -126 -94 -173 -263 -117
-425 21 -60 94 -142 154 -172 148 -75 332 -55 549 60 l102 55 0 -70 0 -71 140
0 140 0 0 423 c0 461 -5 514 -56 608 -51 93 -148 165 -274 204 -55 16 -263 28
-325 19z m375 -817 l0 -74 -102 -54 c-152 -80 -202 -98 -281 -98 -41 -1 -79 5
-96 13 -59 31 -84 109 -57 180 36 93 72 105 334 106 l202 0 0 -73z"/>
<path d="M7030 4790 c-92 -11 -145 -27 -222 -67 -120 -63 -212 -188 -238 -322
-16 -88 -13 -466 5 -536 58 -219 252 -345 534 -345 130 0 223 19 318 64 129
62 209 169 220 297 l6 59 -135 0 -135 0 -7 -40 c-9 -58 -65 -116 -129 -135
-28 -8 -88 -15 -133 -15 -190 0 -284 86 -284 259 l0 61 410 0 410 0 0 158 c0
175 -10 225 -63 325 -88 167 -316 264 -557 237z m226 -258 c79 -41 121 -110
131 -218 l6 -64 -283 0 -283 0 5 68 c9 119 68 197 178 233 14 5 66 7 115 6 68
-3 100 -8 131 -25z"/>
<path d="M8355 4789 c-176 -18 -329 -110 -393 -236 -46 -90 -52 -133 -52 -399
0 -219 2 -260 19 -313 38 -121 107 -204 220 -261 85 -42 169 -60 291 -60 127
0 217 18 299 60 145 73 220 187 237 360 l7 71 -139 -3 -139 -3 -6 -50 c-12
-95 -60 -153 -151 -180 -112 -33 -237 -10 -300 56 -57 60 -68 111 -68 324 0
250 21 313 124 368 56 30 222 32 276 3 75 -40 109 -88 119 -171 l6 -50 138 -3
137 -3 0 33 c0 57 -29 171 -57 226 -33 65 -114 142 -187 176 -101 48 -248 69
-381 55z"/>
<path d="M3020 2995 c0 -187 1 -195 20 -195 17 0 19 8 22 88 l3 87 88 3 c79 3
87 5 87 22 0 18 -7 20 -90 20 l-91 0 3 68 3 67 98 3 c77 2 97 6 97 17 0 12
-21 15 -120 15 l-120 0 0 -195z"/>
<path d="M4200 2994 c0 -181 1 -195 18 -192 15 3 17 22 20 196 2 187 2 192
-18 192 -19 0 -20 -6 -20 -196z"/>
<path d="M4510 3114 c0 -42 -3 -74 -7 -72 -85 44 -134 46 -169 7 -16 -17 -19
-37 -19 -111 0 -86 1 -91 28 -114 34 -29 75 -31 127 -4 l40 20 0 -21 c0 -14 5
-19 18 -17 15 3 17 22 20 196 2 187 2 192 -18 192 -18 0 -20 -6 -20 -76z m-39
-96 c38 -21 39 -23 39 -80 0 -57 0 -58 -40 -78 -51 -26 -96 -26 -110 -1 -16
32 -13 147 6 165 22 22 59 20 105 -6z"/>
<path d="M5110 3115 l0 -75 -40 20 c-55 28 -86 25 -121 -9 -28 -28 -29 -34
-29 -116 0 -78 2 -88 25 -110 30 -31 76 -33 128 -6 36 18 37 18 37 0 0 -12 7
-19 20 -19 19 0 20 7 20 195 0 188 -1 195 -20 195 -18 0 -20 -7 -20 -75z m-34
-96 c32 -20 34 -23 34 -80 0 -56 -2 -60 -32 -79 -37 -22 -88 -26 -106 -8 -16
16 -16 160 0 176 18 18 67 14 104 -9z"/>
<path d="M5870 3115 l0 -75 -40 20 c-47 24 -71 25 -109 5 -37 -19 -41 -31 -41
-131 0 -77 2 -87 25 -109 30 -31 76 -33 128 -5 l37 20 0 -20 c0 -13 7 -20 20
-20 19 0 20 7 20 195 0 188 -1 195 -20 195 -18 0 -20 -7 -20 -75z m-40 -95
c40 -20 40 -21 40 -79 0 -57 -2 -60 -34 -80 -18 -12 -47 -21 -64 -21 -43 0
-62 31 -62 100 0 96 38 122 120 80z"/>
<path d="M6420 3175 c0 -10 15 -15 58 -17 l57 -3 3 -177 c2 -169 3 -178 22
-178 19 0 20 9 22 178 l3 177 58 3 c42 2 57 7 57 17 0 12 -24 15 -140 15 -116
0 -140 -3 -140 -15z"/>
<path d="M7910 2995 c0 -188 1 -195 20 -195 19 0 20 7 20 195 0 188 -1 195
-20 195 -19 0 -20 -7 -20 -195z"/>
<path d="M3349 3065 c-15 -8 -32 -28 -37 -45 -10 -26 -9 -30 8 -30 10 0 21 8
25 18 6 21 45 42 76 42 26 0 69 -43 69 -70 0 -18 -6 -20 -54 -20 -98 0 -136
-25 -136 -89 0 -41 31 -71 73 -71 18 0 50 9 72 20 22 11 41 20 42 20 2 0 3 -9
3 -20 0 -13 7 -20 20 -20 18 0 20 7 20 88 0 113 -13 158 -50 177 -36 19 -97
19 -131 0z"/>
<path d="M3654 3070 c-41 -16 -54 -49 -54 -132 0 -67 3 -81 24 -105 22 -25 31
-28 85 -28 67 0 94 17 106 68 6 23 4 27 -13 27 -13 0 -22 -9 -26 -24 -12 -48
-112 -56 -130 -11 -8 23 -7 137 2 152 25 39 117 30 128 -12 6 -24 44 -37 44
-16 0 67 -92 111 -166 81z"/>
<path d="M3892 2959 c3 -113 5 -122 27 -140 30 -24 67 -24 113 0 36 20 36 20
41 0 3 -10 12 -19 21 -19 14 0 16 19 16 140 0 133 -1 140 -20 140 -19 0 -20
-7 -20 -99 l0 -99 -34 -21 c-37 -23 -76 -27 -94 -9 -8 8 -12 49 -12 120 0 103
-1 108 -21 108 -20 0 -21 -4 -17 -121z"/>
<path d="M4669 3065 c-15 -8 -32 -28 -37 -45 -10 -26 -9 -30 8 -30 10 0 21 8
25 18 6 21 45 42 76 42 26 0 69 -43 69 -70 0 -17 -6 -20 -47 -20 -65 0 -121
-17 -133 -40 -30 -56 4 -120 63 -120 18 0 50 9 72 20 22 11 41 20 42 20 2 0 3
-9 3 -20 0 -13 7 -20 20 -20 18 0 20 7 20 88 0 113 -13 158 -50 177 -36 19
-97 19 -131 0z"/>
<path d="M5264 3046 c-32 -32 -34 -37 -34 -106 0 -82 9 -104 50 -125 73 -37
170 -3 170 61 0 21 -28 17 -35 -4 -5 -19 -44 -42 -70 -42 -30 0 -65 24 -75 53
-5 16 -10 31 -10 33 0 2 44 5 97 6 110 3 113 5 93 78 -13 49 -57 80 -113 80
-31 0 -46 -7 -73 -34z"/>
<path d="M6045 3068 c-44 -24 -55 -50 -55 -130 0 -66 3 -81 23 -104 19 -22 34
-28 78 -32 49 -4 59 -1 87 23 32 26 43 65 20 65 -7 0 -22 -12 -34 -27 -42 -54
-144 -27 -144 38 0 17 9 19 95 19 l95 0 0 40 c0 52 -18 88 -51 106 -33 17 -86
18 -114 2z"/>
<path d="M6774 3071 c-44 -19 -64 -59 -64 -127 0 -79 11 -109 49 -129 66 -34
171 -3 171 50 0 32 -23 33 -38 1 -19 -43 -106 -44 -134 -2 -4 6 -8 21 -8 34 0
21 3 22 90 22 101 0 107 4 96 65 -11 55 -44 86 -96 91 -25 2 -55 0 -66 -5z"/>
<path d="M7064 3070 c-41 -16 -54 -49 -54 -133 0 -73 2 -80 29 -108 23 -23 38
-29 71 -29 51 0 93 21 108 55 17 36 15 45 -8 45 -11 0 -20 -6 -20 -13 0 -44
-93 -68 -128 -34 -24 24 -24 149 -1 173 34 33 129 10 129 -33 0 -7 9 -13 20
-13 23 0 25 9 8 45 -21 47 -96 69 -154 45z"/>
<path d="M7300 2940 c0 -133 1 -140 20 -140 19 0 20 7 20 98 l0 98 39 22 c44
25 74 28 89 9 6 -7 13 -60 14 -117 3 -91 5 -105 21 -108 15 -3 17 7 17 113 0
110 -1 117 -25 140 -29 30 -63 32 -115 5 l-40 -20 0 20 c0 13 -7 20 -20 20
-19 0 -20 -7 -20 -140z"/>
<path d="M7654 3065 c-41 -21 -54 -52 -54 -125 0 -71 15 -107 51 -126 59 -30
144 -10 167 41 7 14 12 55 12 90 0 57 -3 69 -28 96 -34 38 -99 49 -148 24z
m121 -48 c9 -13 15 -45 15 -83 0 -56 -3 -65 -26 -83 -35 -28 -67 -26 -101 3
-25 22 -28 31 -28 84 0 44 5 65 19 80 31 35 96 34 121 -1z"/>
<path d="M8073 3061 c-75 -47 -66 -221 13 -251 50 -19 101 -12 136 19 32 29
33 32 33 110 0 74 -2 83 -27 107 -36 37 -110 44 -155 15z m137 -51 c15 -28 12
-123 -5 -147 -19 -27 -61 -37 -95 -23 -74 31 -64 190 13 202 32 5 76 -11 87
-32z"/>
<path d="M8395 3073 c-48 -12 -73 -61 -55 -109 9 -22 8 -29 -5 -36 -16 -10
-21 -73 -6 -82 4 -3 11 -24 14 -47 10 -74 64 -108 149 -94 76 13 110 75 69
126 -17 21 -30 25 -113 29 -85 5 -93 7 -93 25 0 18 8 21 76 25 98 6 122 24
117 87 -3 36 0 43 14 43 11 0 18 8 18 20 0 18 -6 20 -82 19 -46 -1 -92 -4
-103 -6z"/>
<path d="M8801 3066 c-22 -12 -50 -50 -51 -68 0 -17 39 -7 45 10 6 21 45 42
76 42 26 0 69 -43 69 -70 0 -18 -6 -20 -54 -20 -98 0 -136 -25 -136 -89 0 -41
31 -71 73 -71 18 0 50 9 72 20 48 24 45 24 45 -1 0 -14 5 -19 18 -17 15 3 17
16 17 98 0 52 -3 107 -8 122 -14 51 -109 76 -166 44z"/>
</g>
</svg>
